# xmcd
#
# Track frame offsets: 
#        150
#        10842
#        38472
#        46872
#        72130
#        94460
#        115797
#        131500
#        171297
#        185470
#        206282
#        219837
#        238387
#        260037
#        275792
#        311847
#
# Disc length: 4305 seconds
#
# Revision: 12
# Processed by: cddbd v1.5.2PL0 Copyright (c) Steve Scherf et al.
# Submitted via: ExactAudioCopy v0.95b4
#
DISCID=e710cf10
DTITLE=Stevie Ray Vaughan And Double Trouble - The Real Deal: Greatest
DTITLE=Hits Volume 2
DYEAR=1999
DGENRE=Blues
TTITLE0=1 - Love Struck Baby
TTITLE1=2 - Ain't Gone 'N' Give Up On Love
TTITLE2=3 - Scuttle Buttin'
TTITLE3=4 - Wall Of Denial
TTITLE4=5 - Lenny
TTITLE5=6 - Superstition [live]
TTITLE6=7 - Empty Arms
TTITLE7=8 - Riviera Paradise
TTITLE8=9 - Look At Little Sister
TTITLE9=10 - Willie The Wimp [live]
TTITLE10=11 - Pipeline
TTITLE11=12 - Shake For Me [live]
TTITLE12=13 - Leave My Girl Alone [live]
TTITLE13=14 - Telephone Song
TTITLE14=15 - Voodoo Chile (Slight Return)
TTITLE15=Life By The Drop
EXTD=YEAR: 1999 ID3G:   0
EXTT0=
EXTT1=
EXTT2=
EXTT3=
EXTT4=
EXTT5=
EXTT6=
EXTT7=
EXTT8=
EXTT9=
EXTT10=
EXTT11=
EXTT12=
EXTT13=
EXTT14=
EXTT15=
PLAYORDER=
